<svg
  width="24"
  height="24"
  viewBox="0 0 24 24"
  fill="none"
  xmlns="http://www.w3.org/2000/svg"
>
  <defs>
    <linearGradient
      id="grad2"
      x1="0%"
      y1="0%"
      x2="100%"
      y2="100%"
    >
      <stop
        offset="0%"
        style="stop-color:hsl(221 83% 53%);stop-opacity:1;"
      />
      <stop
        offset="100%"
        style="stop-color:hsl(262 80% 58%);stop-opacity:1;"
      />
    </linearGradient>
  </defs>
  <path
    d="M14 2H6C5.46957 2 4.96086 2.21071 4.58579 2.58579C4.21071 2.96086 4 3.46957 4 4V20C4 20.5304 4.21071 21.0391 4.58579 21.4142C4.96086 21.7893 5.46957 22 6 22H18C18.5304 22 19.0391 21.7893 19.4142 21.4142C19.7893 21.0391 20 20.5304 20 20V8L14 2Z"
    fill="url(#grad2)"
    fill-opacity="0.2"
    stroke="url(#grad2)"
    stroke-width="2"
    stroke-linecap="round"
    stroke-linejoin="round"
  />
  <path
    d="M14 2V8H20"
    stroke="url(#grad2)"
    stroke-width="2"
    stroke-linecap="round"
    stroke-linejoin="round"
  />
  <path 
    d="M9.5 13.5L11 12L9.5 10.5" 
    stroke="hsl(0 0% 100%)" 
    stroke-width="1.5" 
    stroke-linecap="round" 
    stroke-linejoin="round" 
  />
  <path 
    d="M12.5 15.5H15.5" 
    stroke="hsl(0 0% 100%)" 
    stroke-width="1.5" 
    stroke-linecap="round" 
    stroke-linejoin="round" 
  />
</svg>
